<?xml version="1.0" encoding="UTF-8"?>
<svg id="Layer_1" data-name="Layer 1" xmlns="http://www.w3.org/2000/svg" viewBox="0 0 425.2 143.61">
  <defs>
    <style>
      .cls-1 {
        fill: #a88b30;
      }

      .cls-1, .cls-2, .cls-3 {
        stroke-width: 0px;
      }

      .cls-2 {
        fill: #ccbe9a;
      }

      .cls-3 {
        fill: #0d426b;
      }
    </style>
  </defs>
  <path class="cls-3" d="M165.82,52.49l10.79,25.7h.19l10.69-25.7h6.86v33.94h-4.6v-27.9h-.1l-11.46,27.9h-3.07l-11.46-27.9h-.1v27.9h-4.6v-33.94h6.86Z"/>
  <path class="cls-3" d="M215.48,65.34c1.58,1.49,2.35,3.21,2.35,5.23v12.18c0,1.39.05,2.64.19,3.69h-3.84c-.1-1.15-.14-2.3-.14-3.45h-.1c-1.77,2.68-4.46,4.03-7.96,4.03-4.6,0-7.86-2.64-7.86-6.81,0-4.84,3.98-7.86,12.46-7.86h3.21v-.81c0-3.02-2.21-4.94-5.47-4.94-2.49,0-3.93.62-6.42,2.59l-2.59-2.68c2.45-2.25,5.42-3.36,9.01-3.36,3.16,0,5.56.72,7.14,2.21ZM207.33,83.55c3.98,0,6.47-2.44,6.47-6.81v-1.25h-2.44c-5.94,0-8.92,1.44-8.92,4.36,0,2.45,1.63,3.69,4.89,3.69Z"/>
  <path class="cls-3" d="M241.22,66.78l-3.26,2.97c-1.58-1.68-3.5-2.54-5.66-2.54-4.27,0-7.1,3.31-7.1,8.05,0,2.21.67,4.03,2.06,5.51s3.12,2.21,5.27,2.21,4.03-.86,5.51-2.54l3.07,3.07c-2.06,2.35-4.94,3.5-8.63,3.5-3.5,0-6.38-1.1-8.58-3.31-2.21-2.2-3.31-5.03-3.31-8.53s1.1-6.42,3.36-8.68c2.21-2.21,5.03-3.31,8.53-3.31s6.52,1.2,8.72,3.6Z"/>
  <path class="cls-3" d="M246.74,50.19v23.39l9.83-9.88h5.99l-10.64,10.36,11.51,12.37h-6.14l-10.55-11.79v11.79h-4.31v-36.24h4.31Z"/>
  <path class="cls-3" d="M286.38,75.45v1.2h-18.22c0,1.92.77,3.5,2.3,4.75,1.53,1.25,3.31,1.87,5.37,1.87,2.3,0,4.36-1.15,6.23-3.4l3.26,2.49c-2.45,3.12-5.8,4.65-10.07,4.65-3.4,0-6.23-1.1-8.39-3.31-2.21-2.16-3.31-5.03-3.31-8.63,0-3.4,1.1-6.23,3.31-8.53,2.2-2.25,5.03-3.4,8.44-3.4,6.76,0,11.07,4.51,11.07,12.32ZM281.78,73.2c-.14-4.22-2.54-6.62-6.57-6.62-2.11,0-3.79.72-5.08,2.11-1.29,1.44-1.97,2.92-1.97,4.51h13.62Z"/>
  <path class="cls-3" d="M309.3,71.62v14.81h-4.31v-13.57c0-3.5-1.92-5.71-5.18-5.71-3.98,0-6.33,2.78-6.33,7.38v11.89h-4.31v-22.72h4.31v3.5h.1c1.2-2.49,4.17-4.07,7.48-4.07,5.03,0,8.25,3.31,8.25,8.49Z"/>
  <path class="cls-3" d="M330.01,63.71v3.84l-12.99,15.15h13.66v3.74h-18.84v-3.88l12.9-15.1h-12.46v-3.74h17.74Z"/>
  <path class="cls-1" d="M338.88,55.56c0,1.73-1.44,3.16-3.16,3.16s-3.16-1.39-3.16-3.16c0-.86.34-1.63.96-2.25,1.77-2.01,5.51-.43,5.37,2.25Z"/>
  <rect class="cls-3" x="333.55" y="63.71" width="4.32" height="22.72"/>
  <path class="cls-3" d="M363.81,75.45v1.2h-18.22c0,1.92.77,3.5,2.3,4.75,1.53,1.25,3.31,1.87,5.37,1.87,2.3,0,4.36-1.15,6.23-3.4l3.26,2.49c-2.45,3.12-5.8,4.65-10.07,4.65-3.4,0-6.23-1.1-8.39-3.31-2.21-2.16-3.31-5.03-3.31-8.63,0-3.4,1.1-6.23,3.31-8.53,2.2-2.25,5.03-3.4,8.44-3.4,6.76,0,11.07,4.51,11.07,12.32ZM359.2,73.2c-.14-4.22-2.54-6.62-6.57-6.62-2.11,0-3.79.72-5.08,2.11-1.29,1.44-1.97,2.92-1.97,4.51h13.62Z"/>
  <g>
    <path class="cls-2" d="M127.73,116.87c-12.52-14.25-29.84-22.75-47.56-28.65-5.93-1.91-11.99-3.64-18.05-4.87l1.51-1.29c-.25,8.51-.63,17-1.31,25.49-.38-4.25-.54-8.5-.82-12.74-.2-4.25-.37-8.5-.48-12.74-.03-.8.72-1.44,1.51-1.29,24.68,4.11,51,14.46,65.21,36.12h0Z"/>
    <path class="cls-2" d="M76.83,116.87c14.29-21.65,40.5-31.91,65.19-36.21.85-.16,1.66.53,1.62,1.39-.27,10-.64,20.01-1.41,29.99-.77-9.98-1.14-19.99-1.41-29.99l1.62,1.39c-24.1,5.26-48.85,14.55-65.62,33.43h0Z"/>
  </g>
  <g>
    <path class="cls-1" d="M159.86,102.54v2.9c0,.51.05.95.15,1.34.1.39.27.71.49.97s.52.46.88.6c.36.14.81.21,1.33.21h4.24v-3.4c0-.67.08-1.28.24-1.84.16-.55.41-1.03.75-1.43.34-.4.78-.71,1.31-.93.53-.22,1.17-.33,1.91-.33h2.61v8h-1.8v-6.31h-.83c-.43,0-.8.06-1.1.17-.3.12-.55.29-.75.52s-.33.53-.42.88c-.09.35-.13.76-.13,1.23v5.28h-6.01c-.84,0-1.55-.13-2.13-.39-.59-.26-1.06-.61-1.42-1.06-.36-.45-.62-.97-.78-1.57s-.24-1.24-.24-1.91v-2.93h1.69ZM164.37,112.12v2.22h-1.48v-2.22h1.48ZM166.89,112.12v2.22h-1.48v-2.22h1.48Z"/>
    <path class="cls-1" d="M172.72,114.28c.78-.21,1.49-.53,2.13-.95s1.18-.95,1.62-1.57.79-1.34,1.04-2.15c.24-.81.37-1.72.37-2.72,0-.34-.02-.68-.06-1.02-.04-.34-.08-.67-.14-.99-.06-.33-.12-.64-.21-.95-.08-.31-.18-.61-.28-.89l1.7-.52c.08.26.17.53.25.81.08.29.15.58.21.88.06.3.11.61.16.93.05.31.08.63.11.95.02.32.05.63.1.93.05.3.14.56.26.79.12.23.3.41.52.55.22.14.53.21.9.21v1.84c-.25,0-.48-.02-.68-.06-.21-.04-.39-.1-.56-.19s-.31-.18-.44-.3-.24-.26-.35-.41c-.17.82-.44,1.56-.78,2.23-.35.67-.76,1.26-1.24,1.79-.48.52-1.02.98-1.62,1.35-.6.38-1.24.68-1.93.9l-1.1-1.42ZM178.33,96.9v2.22h-1.62v-2.22h1.62Z"/>
    <path class="cls-1" d="M182.27,110.4h-.84c-.1,0-.21-.02-.34-.06-.13-.04-.24-.1-.35-.19s-.2-.19-.28-.31c-.07-.12-.11-.27-.11-.42v-.46l1.08-.4h.84v1.84Z"/>
    <path class="cls-1" d="M183.11,110.4h-.84c-.1,0-.22-.02-.34-.06s-.24-.1-.35-.19c-.11-.08-.2-.19-.28-.31-.07-.12-.11-.27-.11-.42v-.46l1.08-.4h.84v1.84Z"/>
    <path class="cls-1" d="M183.95,110.4h-.84c-.1,0-.21-.02-.34-.06-.13-.04-.24-.1-.35-.19s-.2-.19-.28-.31c-.07-.12-.11-.27-.11-.42v-.46l1.08-.4h.84v1.84Z"/>
    <path class="cls-1" d="M184.79,110.4h-.84c-.1,0-.22-.02-.34-.06s-.24-.1-.35-.19c-.11-.08-.2-.19-.28-.31-.07-.12-.11-.27-.11-.42v-.46l1.08-.4h.84v1.84Z"/>
    <path class="cls-1" d="M185.64,110.4h-.84c-.1,0-.22-.02-.34-.06s-.24-.1-.35-.19c-.11-.08-.2-.19-.28-.31-.07-.12-.11-.27-.11-.42v-.46l1.08-.4h.84v1.84Z"/>
    <path class="cls-1" d="M186.48,110.4h-.84c-.1,0-.21-.02-.34-.06-.13-.04-.24-.1-.35-.19s-.2-.19-.28-.31c-.07-.12-.11-.27-.11-.42v-.46l1.08-.4h.84v1.84Z"/>
    <path class="cls-1" d="M190.17,100.63v5.58c0,.79.15,1.38.46,1.77.3.39.8.58,1.48.58v1.84c-.64,0-1.17-.13-1.59-.39s-.75-.65-.98-1.15c-.17.26-.36.48-.57.68-.22.19-.45.35-.72.48-.26.13-.54.23-.84.29-.29.06-.6.1-.92.1-.1,0-.22-.02-.34-.06s-.24-.09-.35-.17c-.11-.08-.2-.18-.28-.3s-.11-.27-.11-.45v-.46l1.08-.4c.66,0,1.14-.18,1.44-.54.3-.36.45-.92.45-1.67v-5.72h1.8ZM190.06,95.49v2.22h-1.62v-2.22h1.62Z"/>
    <path class="cls-1" d="M192.95,110.4h-.84c-.1,0-.21-.02-.34-.06-.13-.04-.24-.1-.35-.19s-.2-.19-.28-.31c-.07-.12-.11-.27-.11-.42v-.46l1.08-.4h.84v1.84Z"/>
    <path class="cls-1" d="M193.79,110.4h-.84c-.1,0-.22-.02-.34-.06s-.24-.1-.35-.19c-.11-.08-.2-.19-.28-.31-.07-.12-.11-.27-.11-.42v-.46l1.08-.4h.84v1.84Z"/>
    <path class="cls-1" d="M194.63,110.4h-.84c-.1,0-.21-.02-.34-.06-.13-.04-.24-.1-.35-.19s-.2-.19-.28-.31c-.07-.12-.11-.27-.11-.42v-.46l1.08-.4h.84v1.84Z"/>
    <path class="cls-1" d="M195.47,110.4h-.84c-.1,0-.22-.02-.34-.06s-.24-.1-.35-.19c-.11-.08-.2-.19-.28-.31-.07-.12-.11-.27-.11-.42v-.46l1.08-.4h.84v1.84Z"/>
    <path class="cls-1" d="M196.31,110.4h-.84c-.1,0-.22-.02-.34-.06s-.24-.1-.35-.19c-.11-.08-.2-.19-.28-.31-.07-.12-.11-.27-.11-.42v-.46l1.08-.4h.84v1.84Z"/>
    <path class="cls-1" d="M197.16,110.4h-.84c-.1,0-.21-.02-.34-.06-.13-.04-.24-.1-.35-.19s-.2-.19-.28-.31c-.07-.12-.11-.27-.11-.42v-.46l1.08-.4h.84v1.84Z"/>
    <path class="cls-1" d="M198,110.4h-.84c-.1,0-.22-.02-.34-.06s-.24-.1-.35-.19c-.11-.08-.2-.19-.28-.31-.07-.12-.11-.27-.11-.42v-.46l1.08-.4h.84v1.84Z"/>
    <path class="cls-1" d="M198.84,110.4h-.84c-.1,0-.21-.02-.34-.06-.13-.04-.24-.1-.35-.19s-.2-.19-.28-.31c-.07-.12-.11-.27-.11-.42v-.46l1.08-.4h.84v1.84Z"/>
    <path class="cls-1" d="M199.68,110.4h-.84c-.1,0-.22-.02-.34-.06s-.24-.1-.35-.19c-.11-.08-.2-.19-.28-.31-.07-.12-.11-.27-.11-.42v-.46l1.08-.4h.84v1.84Z"/>
    <path class="cls-1" d="M200.53,110.4h-.84c-.1,0-.21-.02-.34-.06-.13-.04-.24-.1-.35-.19s-.2-.19-.28-.31c-.07-.12-.11-.27-.11-.42v-.46l1.08-.4h.84v1.84Z"/>
    <path class="cls-1" d="M201.37,110.4h-.84c-.1,0-.21-.02-.34-.06-.13-.04-.24-.1-.35-.19s-.2-.19-.28-.31c-.07-.12-.11-.27-.11-.42v-.46l1.08-.4h.84v1.84Z"/>
    <path class="cls-1" d="M202.21,110.4h-.84c-.1,0-.22-.02-.34-.06s-.24-.1-.35-.19c-.11-.08-.2-.19-.28-.31-.07-.12-.11-.27-.11-.42v-.46l1.08-.4h.84v1.84Z"/>
    <path class="cls-1" d="M203.06,110.4h-.84c-.1,0-.21-.02-.34-.06-.13-.04-.24-.1-.35-.19s-.2-.19-.28-.31c-.07-.12-.11-.27-.11-.42v-.46l1.08-.4h.84v1.84Z"/>
    <path class="cls-1" d="M203.9,110.4h-.84c-.1,0-.22-.02-.34-.06s-.24-.1-.35-.19c-.11-.08-.2-.19-.28-.31-.07-.12-.11-.27-.11-.42v-.46l1.08-.4h.84v1.84Z"/>
    <path class="cls-1" d="M204.74,110.4h-.84c-.1,0-.21-.02-.34-.06-.13-.04-.24-.1-.35-.19s-.2-.19-.28-.31c-.07-.12-.11-.27-.11-.42v-.46l1.08-.4h.84v1.84Z"/>
    <path class="cls-1" d="M205.58,110.4h-.84c-.1,0-.22-.02-.34-.06s-.24-.1-.35-.19c-.11-.08-.2-.19-.28-.31-.07-.12-.11-.27-.11-.42v-.46l1.08-.4h.84v1.84Z"/>
    <path class="cls-1" d="M206.43,110.4h-.84c-.1,0-.22-.02-.34-.06s-.24-.1-.35-.19c-.11-.08-.2-.19-.28-.31-.07-.12-.11-.27-.11-.42v-.46l1.08-.4h.84v1.84Z"/>
    <path class="cls-1" d="M207.27,110.4h-.84c-.1,0-.21-.02-.34-.06-.13-.04-.24-.1-.35-.19s-.2-.19-.28-.31c-.07-.12-.11-.27-.11-.42v-.46l1.08-.4h.84v1.84Z"/>
    <path class="cls-1" d="M208.11,110.4h-.84c-.1,0-.22-.02-.34-.06s-.24-.1-.35-.19c-.11-.08-.2-.19-.28-.31-.07-.12-.11-.27-.11-.42v-.46l1.08-.4h.84v1.84Z"/>
    <path class="cls-1" d="M208.95,110.4h-.84c-.1,0-.21-.02-.34-.06-.13-.04-.24-.1-.35-.19s-.2-.19-.28-.31c-.07-.12-.11-.27-.11-.42v-.46l1.08-.4h.84v1.84Z"/>
    <path class="cls-1" d="M209.8,110.4h-.84c-.1,0-.22-.02-.34-.06s-.24-.1-.35-.19c-.11-.08-.2-.19-.28-.31-.07-.12-.11-.27-.11-.42v-.46l1.08-.4h.84v1.84Z"/>
    <path class="cls-1" d="M210.64,110.4h-.84c-.1,0-.21-.02-.34-.06-.13-.04-.24-.1-.35-.19s-.2-.19-.28-.31c-.07-.12-.11-.27-.11-.42v-.46l1.08-.4h.84v1.84Z"/>
    <path class="cls-1" d="M211.48,110.4h-.84c-.1,0-.21-.02-.34-.06-.13-.04-.24-.1-.35-.19s-.2-.19-.28-.31c-.07-.12-.11-.27-.11-.42v-.46l1.08-.4h.84v1.84Z"/>
    <path class="cls-1" d="M210.41,108.96l1.08-.4h7.03c.08-.14.14-.28.19-.43.04-.15.06-.31.06-.5,0-.44-.1-.87-.32-1.28-.21-.41-.49-.81-.83-1.18-.34-.37-.73-.72-1.17-1.06-.44-.33-.88-.63-1.32-.9-.44-.27-.87-.52-1.29-.73-.42-.22-.78-.39-1.1-.53v-1.45l8.25-5.57h.14v2.03l-6.4,4.2c.41.21.85.44,1.3.7s.89.53,1.33.84c.43.3.85.63,1.24.99s.73.74,1.03,1.15c.29.41.53.86.7,1.34.18.48.26.99.26,1.53,0,.58-.1,1.08-.3,1.5-.2.42-.51.82-.91,1.19h-7.89c-.1,0-.22-.02-.34-.06s-.24-.09-.35-.17c-.11-.08-.2-.18-.28-.3s-.11-.27-.11-.45v-.46Z"/>
    <path class="cls-1" d="M225.61,95.13v11.58c0,.31.04.59.11.81.07.23.19.42.35.57.16.15.37.27.63.35s.57.12.94.12v1.84c-.54,0-1.05-.07-1.51-.21s-.87-.37-1.22-.67-.61-.69-.81-1.15c-.19-.46-.29-1.01-.29-1.64v-11.59h1.8Z"/>
    <path class="cls-1" d="M228.49,110.4h-.84c-.1,0-.22-.02-.34-.06s-.24-.1-.35-.19c-.11-.08-.2-.19-.28-.31-.07-.12-.11-.27-.11-.42v-.46l1.08-.4h.84v1.84Z"/>
    <path class="cls-1" d="M229.33,110.4h-.84c-.1,0-.22-.02-.34-.06s-.24-.1-.35-.19c-.11-.08-.2-.19-.28-.31-.07-.12-.11-.27-.11-.42v-.46l1.08-.4h.84v1.84Z"/>
    <path class="cls-1" d="M230.17,110.4h-.84c-.1,0-.21-.02-.34-.06-.13-.04-.24-.1-.35-.19s-.2-.19-.28-.31c-.07-.12-.11-.27-.11-.42v-.46l1.08-.4h.84v1.84Z"/>
    <path class="cls-1" d="M231.01,110.4h-.84c-.1,0-.22-.02-.34-.06s-.24-.1-.35-.19c-.11-.08-.2-.19-.28-.31-.07-.12-.11-.27-.11-.42v-.46l1.08-.4h.84v1.84Z"/>
    <path class="cls-1" d="M231.86,110.4h-.84c-.1,0-.21-.02-.34-.06-.13-.04-.24-.1-.35-.19s-.2-.19-.28-.31c-.07-.12-.11-.27-.11-.42v-.46l1.08-.4h.84v1.84Z"/>
    <path class="cls-1" d="M232.7,110.4h-.84c-.1,0-.22-.02-.34-.06s-.24-.1-.35-.19c-.11-.08-.2-.19-.28-.31-.07-.12-.11-.27-.11-.42v-.46l1.08-.4h.84v1.84Z"/>
    <path class="cls-1" d="M233.54,110.4h-.84c-.1,0-.21-.02-.34-.06-.13-.04-.24-.1-.35-.19s-.2-.19-.28-.31c-.07-.12-.11-.27-.11-.42v-.46l1.08-.4h.84v1.84Z"/>
    <path class="cls-1" d="M234.39,110.4h-.84c-.1,0-.21-.02-.34-.06-.13-.04-.24-.1-.35-.19s-.2-.19-.28-.31c-.07-.12-.11-.27-.11-.42v-.46l1.08-.4h.84v1.84Z"/>
    <path class="cls-1" d="M235.23,110.4h-.84c-.1,0-.22-.02-.34-.06s-.24-.1-.35-.19c-.11-.08-.2-.19-.28-.31-.07-.12-.11-.27-.11-.42v-.46l1.08-.4h.84v1.84Z"/>
    <path class="cls-1" d="M236.07,110.4h-.84c-.1,0-.21-.02-.34-.06-.13-.04-.24-.1-.35-.19s-.2-.19-.28-.31c-.07-.12-.11-.27-.11-.42v-.46l1.08-.4h.84v1.84Z"/>
    <path class="cls-1" d="M236.91,110.4h-.84c-.1,0-.22-.02-.34-.06s-.24-.1-.35-.19c-.11-.08-.2-.19-.28-.31-.07-.12-.11-.27-.11-.42v-.46l1.08-.4h.84v1.84Z"/>
    <path class="cls-1" d="M237.76,110.4h-.84c-.1,0-.21-.02-.34-.06-.13-.04-.24-.1-.35-.19s-.2-.19-.28-.31c-.07-.12-.11-.27-.11-.42v-.46l1.08-.4h.84v1.84Z"/>
    <path class="cls-1" d="M238.6,110.4h-.84c-.1,0-.22-.02-.34-.06s-.24-.1-.35-.19c-.11-.08-.2-.19-.28-.31-.07-.12-.11-.27-.11-.42v-.46l1.08-.4h.84v1.84Z"/>
    <path class="cls-1" d="M239.44,110.4h-.84c-.1,0-.22-.02-.34-.06s-.24-.1-.35-.19c-.11-.08-.2-.19-.28-.31-.07-.12-.11-.27-.11-.42v-.46l1.08-.4h.84v1.84Z"/>
    <path class="cls-1" d="M240.28,110.4h-.84c-.1,0-.21-.02-.34-.06-.13-.04-.24-.1-.35-.19s-.2-.19-.28-.31c-.07-.12-.11-.27-.11-.42v-.46l1.08-.4h.84v1.84Z"/>
    <path class="cls-1" d="M246.13,100.45c.75,0,1.38.14,1.9.43.52.29.94.67,1.26,1.15.32.48.55,1.02.7,1.62s.21,1.22.21,1.84-.06,1.26-.19,1.87c-.13.61-.35,1.16-.66,1.64s-.73.87-1.26,1.16c-.52.3-1.18.44-1.96.44-.44,0-.84-.05-1.19-.14-.35-.09-.66-.22-.92-.39-.26-.17-.49-.38-.68-.62-.19-.24-.35-.52-.48-.82-.19.57-.49,1.01-.89,1.31-.4.3-.96.45-1.68.45-.1,0-.22-.02-.34-.06s-.24-.09-.35-.17c-.11-.08-.2-.18-.28-.31s-.11-.28-.11-.46v-.44l1.08-.4c.29,0,.55-.03.76-.1.21-.07.39-.19.53-.36.14-.17.25-.4.32-.69s.1-.65.1-1.08v-.81c0-.63.07-1.24.2-1.84.13-.6.36-1.14.69-1.62.33-.48.75-.86,1.28-1.15s1.18-.43,1.96-.43ZM246.13,102.04c-.39,0-.73.07-1.03.22-.3.15-.55.36-.76.65-.21.29-.36.64-.47,1.06-.1.42-.16.9-.16,1.46s.05,1.01.15,1.44c.1.42.25.78.46,1.07.2.29.46.51.76.66.3.15.65.23,1.05.23s.74-.08,1.04-.23c.29-.15.54-.37.73-.66s.34-.65.43-1.07c.09-.42.14-.9.14-1.44s-.05-1.02-.16-1.44c-.11-.42-.26-.77-.46-1.06s-.44-.5-.73-.66c-.29-.15-.62-.23-.99-.23Z"/>
    <path class="cls-1" d="M263.35,108.79c-.17.24-.34.46-.53.68-.19.21-.4.4-.64.57-.24.17-.5.3-.79.39-.29.1-.62.15-.99.15-.8,0-1.47-.15-2-.45-.53-.3-.95-.69-1.26-1.16s-.53-1-.66-1.59c-.13-.59-.19-1.16-.19-1.73s.07-1.15.2-1.75c.13-.59.36-1.13.68-1.62.32-.48.74-.88,1.26-1.19.52-.31,1.18-.46,1.98-.46h4.1v6.49c.01.29.05.53.11.72.07.19.17.33.32.44s.33.18.56.22.5.06.84.06v1.84c-.37,0-.71-.02-1.04-.07-.32-.05-.61-.13-.86-.25s-.47-.28-.66-.49-.33-.47-.43-.79ZM262.72,102.22h-2.31c-.39,0-.73.08-1.03.24-.3.16-.55.39-.75.68-.2.29-.35.65-.46,1.06s-.15.87-.15,1.37.05.93.14,1.32c.09.39.24.72.44.99.2.27.44.48.74.63.29.15.65.22,1.08.22.28,0,.53-.04.75-.13.23-.09.43-.21.62-.36s.36-.33.51-.54.29-.43.42-.66v-4.83ZM260.51,95.49v2.22h-1.48v-2.22h1.48ZM263.03,95.49v2.22h-1.48v-2.22h1.48Z"/>
    <path class="cls-1" d="M267.18,110.4h-.84c-.1,0-.22-.02-.34-.06s-.24-.1-.35-.19c-.11-.08-.2-.19-.28-.31-.07-.12-.11-.27-.11-.42v-.46l1.08-.4h.84v1.84Z"/>
    <path class="cls-1" d="M268.02,110.4h-.84c-.1,0-.21-.02-.34-.06-.13-.04-.24-.1-.35-.19s-.2-.19-.28-.31c-.07-.12-.11-.27-.11-.42v-.46l1.08-.4h.84v1.84Z"/>
    <path class="cls-1" d="M268.86,110.4h-.84c-.1,0-.22-.02-.34-.06s-.24-.1-.35-.19c-.11-.08-.2-.19-.28-.31-.07-.12-.11-.27-.11-.42v-.46l1.08-.4h.84v1.84Z"/>
    <path class="cls-1" d="M269.71,110.4h-.84c-.1,0-.21-.02-.34-.06-.13-.04-.24-.1-.35-.19s-.2-.19-.28-.31c-.07-.12-.11-.27-.11-.42v-.46l1.08-.4h.84v1.84Z"/>
    <path class="cls-1" d="M270.55,110.4h-.84c-.1,0-.22-.02-.34-.06s-.24-.1-.35-.19c-.11-.08-.2-.19-.28-.31-.07-.12-.11-.27-.11-.42v-.46l1.08-.4h.84v1.84Z"/>
    <path class="cls-1" d="M271.39,110.4h-.84c-.1,0-.21-.02-.34-.06-.13-.04-.24-.1-.35-.19s-.2-.19-.28-.31c-.07-.12-.11-.27-.11-.42v-.46l1.08-.4h.84v1.84Z"/>
    <path class="cls-1" d="M272.23,110.4h-.84c-.1,0-.21-.02-.34-.06-.13-.04-.24-.1-.35-.19s-.2-.19-.28-.31c-.07-.12-.11-.27-.11-.42v-.46l1.08-.4h.84v1.84Z"/>
    <path class="cls-1" d="M273.08,110.4h-.84c-.1,0-.22-.02-.34-.06s-.24-.1-.35-.19c-.11-.08-.2-.19-.28-.31-.07-.12-.11-.27-.11-.42v-.46l1.08-.4h.84v1.84Z"/>
    <path class="cls-1" d="M273.92,110.4h-.84c-.1,0-.21-.02-.34-.06-.13-.04-.24-.1-.35-.19s-.2-.19-.28-.31c-.07-.12-.11-.27-.11-.42v-.46l1.08-.4h.84v1.84Z"/>
    <path class="cls-1" d="M274.76,110.4h-.84c-.1,0-.22-.02-.34-.06s-.24-.1-.35-.19c-.11-.08-.2-.19-.28-.31-.07-.12-.11-.27-.11-.42v-.46l1.08-.4h.84v1.84Z"/>
    <path class="cls-1" d="M275.6,110.4h-.84c-.1,0-.21-.02-.34-.06-.13-.04-.24-.1-.35-.19s-.2-.19-.28-.31c-.07-.12-.11-.27-.11-.42v-.46l1.08-.4h.84v1.84Z"/>
    <path class="cls-1" d="M276.45,110.4h-.84c-.1,0-.22-.02-.34-.06s-.24-.1-.35-.19c-.11-.08-.2-.19-.28-.31-.07-.12-.11-.27-.11-.42v-.46l1.08-.4h.84v1.84Z"/>
    <path class="cls-1" d="M277.29,110.4h-.84c-.1,0-.21-.02-.34-.06-.13-.04-.24-.1-.35-.19s-.2-.19-.28-.31c-.07-.12-.11-.27-.11-.42v-.46l1.08-.4h.84v1.84Z"/>
    <path class="cls-1" d="M278.13,110.4h-.84c-.1,0-.21-.02-.34-.06-.13-.04-.24-.1-.35-.19s-.2-.19-.28-.31c-.07-.12-.11-.27-.11-.42v-.46l1.08-.4h.84v1.84Z"/>
    <path class="cls-1" d="M278.97,110.4h-.84c-.1,0-.22-.02-.34-.06s-.24-.1-.35-.19c-.11-.08-.2-.19-.28-.31-.07-.12-.11-.27-.11-.42v-.46l1.08-.4h.84v1.84Z"/>
    <path class="cls-1" d="M279.82,110.4h-.84c-.1,0-.21-.02-.34-.06-.13-.04-.24-.1-.35-.19s-.2-.19-.28-.31c-.07-.12-.11-.27-.11-.42v-.46l1.08-.4h.84v1.84Z"/>
    <path class="cls-1" d="M283.5,100.63v5.58c0,.79.15,1.38.46,1.77.3.39.8.58,1.48.58v1.84c-.64,0-1.17-.13-1.59-.39s-.75-.65-.98-1.15c-.17.26-.36.48-.57.68-.22.19-.45.35-.72.48-.26.13-.54.23-.84.29-.29.06-.6.1-.92.1-.1,0-.22-.02-.34-.06s-.24-.09-.35-.17c-.11-.08-.2-.18-.28-.3s-.11-.27-.11-.45v-.46l1.08-.4c.66,0,1.14-.18,1.44-.54.3-.36.45-.92.45-1.67v-5.72h1.8ZM281.88,112.12v2.22h-1.48v-2.22h1.48ZM284.4,112.12v2.22h-1.48v-2.22h1.48Z"/>
    <path class="cls-1" d="M286.28,110.4h-.84c-.1,0-.21-.02-.34-.06-.13-.04-.24-.1-.35-.19s-.2-.19-.28-.31c-.07-.12-.11-.27-.11-.42v-.46l1.08-.4h.84v1.84Z"/>
    <path class="cls-1" d="M287.12,110.4h-.84c-.1,0-.22-.02-.34-.06s-.24-.1-.35-.19c-.11-.08-.2-.19-.28-.31-.07-.12-.11-.27-.11-.42v-.46l1.08-.4h.84v1.84Z"/>
    <path class="cls-1" d="M287.97,110.4h-.84c-.1,0-.22-.02-.34-.06s-.24-.1-.35-.19c-.11-.08-.2-.19-.28-.31-.07-.12-.11-.27-.11-.42v-.46l1.08-.4h.84v1.84Z"/>
    <path class="cls-1" d="M288.81,110.4h-.84c-.1,0-.21-.02-.34-.06-.13-.04-.24-.1-.35-.19s-.2-.19-.28-.31c-.07-.12-.11-.27-.11-.42v-.46l1.08-.4h.84v1.84Z"/>
    <path class="cls-1" d="M289.65,110.4h-.84c-.1,0-.22-.02-.34-.06s-.24-.1-.35-.19c-.11-.08-.2-.19-.28-.31-.07-.12-.11-.27-.11-.42v-.46l1.08-.4h.84v1.84Z"/>
    <path class="cls-1" d="M290.49,110.4h-.84c-.1,0-.21-.02-.34-.06-.13-.04-.24-.1-.35-.19s-.2-.19-.28-.31c-.07-.12-.11-.27-.11-.42v-.46l1.08-.4h.84v1.84Z"/>
    <path class="cls-1" d="M291.34,110.4h-.84c-.1,0-.22-.02-.34-.06s-.24-.1-.35-.19c-.11-.08-.2-.19-.28-.31-.07-.12-.11-.27-.11-.42v-.46l1.08-.4h.84v1.84Z"/>
    <path class="cls-1" d="M292.18,110.4h-.84c-.1,0-.21-.02-.34-.06-.13-.04-.24-.1-.35-.19s-.2-.19-.28-.31c-.07-.12-.11-.27-.11-.42v-.46l1.08-.4h.84v1.84Z"/>
    <path class="cls-1" d="M293.02,110.4h-.84c-.1,0-.22-.02-.34-.06s-.24-.1-.35-.19c-.11-.08-.2-.19-.28-.31-.07-.12-.11-.27-.11-.42v-.46l1.08-.4h.84v1.84Z"/>
    <path class="cls-1" d="M293.86,110.4h-.84c-.1,0-.22-.02-.34-.06s-.24-.1-.35-.19c-.11-.08-.2-.19-.28-.31-.07-.12-.11-.27-.11-.42v-.46l1.08-.4h.84v1.84Z"/>
    <path class="cls-1" d="M305.52,110.4c-.73,0-1.29-.15-1.68-.44s-.69-.71-.88-1.25c-.13.28-.29.55-.48.78-.19.23-.42.43-.69.6-.27.17-.57.29-.92.39-.34.09-.73.14-1.15.14s-.84-.05-1.19-.14-.66-.22-.92-.39c-.26-.17-.49-.38-.68-.62-.19-.24-.35-.52-.48-.82-.19.57-.49,1.01-.89,1.31-.4.3-.96.45-1.68.45-.1,0-.21-.02-.34-.06-.13-.04-.24-.09-.35-.17s-.2-.18-.28-.3c-.07-.12-.11-.27-.11-.45v-.46l1.08-.4c.29,0,.55-.03.76-.1.21-.07.39-.19.53-.36.14-.17.25-.4.32-.69s.1-.65.1-1.08v-.84c0-.63.07-1.24.2-1.84.13-.6.36-1.14.69-1.62s.75-.85,1.28-1.14c.52-.28,1.18-.43,1.96-.43s1.38.14,1.9.43c.52.29.94.67,1.26,1.14s.55,1.01.7,1.62.22,1.22.22,1.84v.84c0,.43.03.79.1,1.08s.18.52.32.69c.14.17.32.29.54.36.22.07.48.1.78.1v1.84ZM299.71,102.04c-.39,0-.73.07-1.03.21-.3.14-.55.36-.76.64-.21.28-.36.63-.47,1.05-.11.42-.16.9-.16,1.44s.05,1.03.15,1.46c.1.43.25.79.46,1.08.2.29.46.51.76.67.3.16.65.23,1.05.23s.74-.08,1.04-.23.54-.38.73-.67c.19-.29.34-.65.43-1.08.09-.43.14-.91.14-1.46s-.05-1.02-.16-1.44c-.1-.41-.26-.76-.46-1.04s-.44-.49-.73-.64c-.29-.15-.62-.22-.99-.22Z"/>
    <path class="cls-1" d="M306.37,110.4h-.84c-.1,0-.21-.02-.34-.06-.13-.04-.24-.1-.35-.19s-.2-.19-.28-.31c-.07-.12-.11-.27-.11-.42v-.46l1.08-.4h.84v1.84Z"/>
    <path class="cls-1" d="M307.21,110.4h-.84c-.1,0-.22-.02-.34-.06s-.24-.1-.35-.19c-.11-.08-.2-.19-.28-.31-.07-.12-.11-.27-.11-.42v-.46l1.08-.4h.84v1.84Z"/>
    <path class="cls-1" d="M308.05,110.4h-.84c-.1,0-.21-.02-.34-.06-.13-.04-.24-.1-.35-.19s-.2-.19-.28-.31c-.07-.12-.11-.27-.11-.42v-.46l1.08-.4h.84v1.84Z"/>
    <path class="cls-1" d="M308.89,110.4h-.84c-.1,0-.22-.02-.34-.06s-.24-.1-.35-.19c-.11-.08-.2-.19-.28-.31-.07-.12-.11-.27-.11-.42v-.46l1.08-.4h.84v1.84Z"/>
    <path class="cls-1" d="M309.74,110.4h-.84c-.1,0-.21-.02-.34-.06-.13-.04-.24-.1-.35-.19s-.2-.19-.28-.31c-.07-.12-.11-.27-.11-.42v-.46l1.08-.4h.84v1.84Z"/>
    <path class="cls-1" d="M310.58,110.4h-.84c-.1,0-.22-.02-.34-.06s-.24-.1-.35-.19c-.11-.08-.2-.19-.28-.31-.07-.12-.11-.27-.11-.42v-.46l1.08-.4h.84v1.84Z"/>
    <path class="cls-1" d="M311.42,110.4h-.84c-.1,0-.21-.02-.34-.06-.13-.04-.24-.1-.35-.19s-.2-.19-.28-.31c-.07-.12-.11-.27-.11-.42v-.46l1.08-.4h.84v1.84Z"/>
    <path class="cls-1" d="M312.26,110.4h-.84c-.1,0-.21-.02-.34-.06-.13-.04-.24-.1-.35-.19s-.2-.19-.28-.31c-.07-.12-.11-.27-.11-.42v-.46l1.08-.4h.84v1.84Z"/>
    <path class="cls-1" d="M313.11,110.4h-.84c-.1,0-.22-.02-.34-.06s-.24-.1-.35-.19c-.11-.08-.2-.19-.28-.31-.07-.12-.11-.27-.11-.42v-.46l1.08-.4h.84v1.84Z"/>
    <path class="cls-1" d="M313.95,110.4h-.84c-.1,0-.21-.02-.34-.06-.13-.04-.24-.1-.35-.19s-.2-.19-.28-.31c-.07-.12-.11-.27-.11-.42v-.46l1.08-.4h.84v1.84Z"/>
    <path class="cls-1" d="M314.79,110.4h-.84c-.1,0-.22-.02-.34-.06s-.24-.1-.35-.19c-.11-.08-.2-.19-.28-.31-.07-.12-.11-.27-.11-.42v-.46l1.08-.4h.84v1.84Z"/>
    <path class="cls-1" d="M315.63,110.4h-.84c-.1,0-.21-.02-.34-.06-.13-.04-.24-.1-.35-.19s-.2-.19-.28-.31c-.07-.12-.11-.27-.11-.42v-.46l1.08-.4h.84v1.84Z"/>
    <path class="cls-1" d="M316.48,110.4h-.84c-.1,0-.22-.02-.34-.06s-.24-.1-.35-.19c-.11-.08-.2-.19-.28-.31-.07-.12-.11-.27-.11-.42v-.46l1.08-.4h.84v1.84Z"/>
    <path class="cls-1" d="M320.21,100.63v5.88c0,.65-.09,1.23-.28,1.71s-.44.89-.77,1.22c-.33.32-.72.56-1.18.72-.46.16-.96.23-1.51.23-.1,0-.22-.02-.34-.06s-.24-.09-.35-.17c-.11-.08-.2-.18-.28-.31s-.11-.28-.11-.46v-.44l1.08-.4c.37,0,.68-.05.93-.14.25-.1.45-.23.6-.41s.25-.39.31-.64c.07-.25.1-.54.1-.86v-5.87h1.8ZM317.87,112.12v2.22h-1.48v-2.22h1.48ZM320.4,112.12v2.22h-1.48v-2.22h1.48Z"/>
    <path class="cls-1" d="M329.7,110.4h-6.75v-1.84h4.99v-2.6c0-.65-.05-1.22-.16-1.68-.11-.47-.27-.85-.5-1.15s-.53-.52-.9-.66-.82-.21-1.35-.21h-2.07v-1.62h2.07c.87,0,1.61.13,2.22.4.6.27,1.09.64,1.45,1.12.36.48.62,1.05.78,1.72s.23,1.4.23,2.19v4.34Z"/>
    <path class="cls-1" d="M334.54,95.13v11.58c0,.31.04.59.11.81.07.23.19.42.35.57.16.15.37.27.63.35s.57.12.94.12v1.84c-.54,0-1.05-.07-1.51-.21s-.87-.37-1.22-.67-.61-.69-.81-1.15c-.19-.46-.29-1.01-.29-1.64v-11.59h1.8Z"/>
    <path class="cls-1" d="M337.42,110.4h-.84c-.1,0-.21-.02-.34-.06-.13-.04-.24-.1-.35-.19s-.2-.19-.28-.31c-.07-.12-.11-.27-.11-.42v-.46l1.08-.4h.84v1.84Z"/>
    <path class="cls-1" d="M338.26,110.4h-.84c-.1,0-.22-.02-.34-.06s-.24-.1-.35-.19c-.11-.08-.2-.19-.28-.31-.07-.12-.11-.27-.11-.42v-.46l1.08-.4h.84v1.84Z"/>
    <path class="cls-1" d="M339.1,110.4h-.84c-.1,0-.21-.02-.34-.06-.13-.04-.24-.1-.35-.19s-.2-.19-.28-.31c-.07-.12-.11-.27-.11-.42v-.46l1.08-.4h.84v1.84Z"/>
    <path class="cls-1" d="M339.94,110.4h-.84c-.1,0-.22-.02-.34-.06s-.24-.1-.35-.19c-.11-.08-.2-.19-.28-.31-.07-.12-.11-.27-.11-.42v-.46l1.08-.4h.84v1.84Z"/>
    <path class="cls-1" d="M340.79,110.4h-.84c-.1,0-.22-.02-.34-.06s-.24-.1-.35-.19c-.11-.08-.2-.19-.28-.31-.07-.12-.11-.27-.11-.42v-.46l1.08-.4h.84v1.84Z"/>
    <path class="cls-1" d="M341.63,110.4h-.84c-.1,0-.21-.02-.34-.06-.13-.04-.24-.1-.35-.19s-.2-.19-.28-.31c-.07-.12-.11-.27-.11-.42v-.46l1.08-.4h.84v1.84Z"/>
    <path class="cls-1" d="M342.47,110.4h-.84c-.1,0-.22-.02-.34-.06s-.24-.1-.35-.19c-.11-.08-.2-.19-.28-.31-.07-.12-.11-.27-.11-.42v-.46l1.08-.4h.84v1.84Z"/>
    <path class="cls-1" d="M343.32,110.4h-.84c-.1,0-.21-.02-.34-.06-.13-.04-.24-.1-.35-.19s-.2-.19-.28-.31c-.07-.12-.11-.27-.11-.42v-.46l1.08-.4h.84v1.84Z"/>
    <path class="cls-1" d="M344.16,110.4h-.84c-.1,0-.22-.02-.34-.06s-.24-.1-.35-.19c-.11-.08-.2-.19-.28-.31-.07-.12-.11-.27-.11-.42v-.46l1.08-.4h.84v1.84Z"/>
    <path class="cls-1" d="M345,110.4h-.84c-.1,0-.21-.02-.34-.06-.13-.04-.24-.1-.35-.19s-.2-.19-.28-.31c-.07-.12-.11-.27-.11-.42v-.46l1.08-.4h.84v1.84Z"/>
    <path class="cls-1" d="M345.84,110.4h-.84c-.1,0-.21-.02-.34-.06-.13-.04-.24-.1-.35-.19s-.2-.19-.28-.31c-.07-.12-.11-.27-.11-.42v-.46l1.08-.4h.84v1.84Z"/>
    <path class="cls-1" d="M346.69,110.4h-.84c-.1,0-.22-.02-.34-.06s-.24-.1-.35-.19c-.11-.08-.2-.19-.28-.31-.07-.12-.11-.27-.11-.42v-.46l1.08-.4h.84v1.84Z"/>
    <path class="cls-1" d="M347.53,110.4h-.84c-.1,0-.21-.02-.34-.06-.13-.04-.24-.1-.35-.19s-.2-.19-.28-.31c-.07-.12-.11-.27-.11-.42v-.46l1.08-.4h.84v1.84Z"/>
    <path class="cls-1" d="M348.37,110.4h-.84c-.1,0-.22-.02-.34-.06s-.24-.1-.35-.19c-.11-.08-.2-.19-.28-.31-.07-.12-.11-.27-.11-.42v-.46l1.08-.4h.84v1.84Z"/>
    <path class="cls-1" d="M349.21,110.4h-.84c-.1,0-.21-.02-.34-.06-.13-.04-.24-.1-.35-.19s-.2-.19-.28-.31c-.07-.12-.11-.27-.11-.42v-.46l1.08-.4h.84v1.84Z"/>
    <path class="cls-1" d="M348.14,108.96l1.08-.4h7.03c.08-.14.14-.28.19-.43.04-.15.06-.31.06-.5,0-.44-.1-.87-.32-1.28-.21-.41-.49-.81-.83-1.18-.34-.37-.73-.72-1.17-1.06-.44-.33-.88-.63-1.32-.9-.44-.27-.87-.52-1.29-.73-.42-.22-.78-.39-1.1-.53v-1.45l8.25-5.57h.14v2.03l-6.4,4.2c.41.21.85.44,1.3.7s.89.53,1.33.84c.43.3.85.63,1.24.99s.73.74,1.03,1.15c.29.41.53.86.7,1.34.18.48.26.99.26,1.53,0,.58-.1,1.08-.3,1.5-.2.42-.51.82-.91,1.19h-7.89c-.1,0-.22-.02-.34-.06s-.24-.09-.35-.17c-.11-.08-.2-.18-.28-.3s-.11-.27-.11-.45v-.46Z"/>
    <path class="cls-1" d="M360.57,95.26h.91c-.18-.14-.32-.31-.41-.51-.09-.2-.14-.41-.14-.61,0-.25.04-.47.12-.66.08-.19.2-.35.35-.48.15-.13.32-.23.52-.29.2-.06.41-.1.63-.1.33,0,.64.07.93.22.29.15.53.35.71.59l-.65.51c-.13-.11-.27-.2-.43-.28s-.34-.12-.55-.12c-.18,0-.33.05-.48.16s-.21.27-.21.49c0,.18.04.34.13.48s.2.24.35.33c.15.09.32.15.51.2.19.05.39.07.58.07h.73v.99h-3.61v-.99ZM361.55,110.4v-13.19h1.8v13.19h-1.8Z"/>
  </g>
  <g>
    <path class="cls-3" d="M261.81,50.46l4.07,9.52h-1.51l-.95-2.35h-4.53l-.94,2.35h-1.51l4.2-9.52h1.17ZM259.35,56.5h3.6l-1.77-4.37h-.03l-1.8,4.37Z"/>
    <path class="cls-3" d="M274.89,51.7l-1.08.82c-.58-.73-1.35-1.09-2.3-1.09-1.05,0-1.9.36-2.56,1.1-.66.74-.99,1.67-.99,2.77s.32,1.92.98,2.63c.66.71,1.51,1.08,2.57,1.08s1.88-.43,2.49-1.28l1.09.82c-.75,1.02-2.1,1.67-3.6,1.67s-2.8-.63-3.6-1.59c-.81-.95-1.29-2.16-1.29-3.35,0-1.47.46-2.68,1.37-3.63.92-.95,2.11-1.44,3.59-1.44,1.36,0,2.6.52,3.34,1.48Z"/>
    <path class="cls-3" d="M280.87,50.46l4.07,9.52h-1.51l-.96-2.35h-4.53l-.94,2.35h-1.51l4.19-9.52h1.17ZM278.41,56.5h3.6l-1.77-4.37h-.03l-1.8,4.37Z"/>
    <path class="cls-3" d="M289.41,50.46c1.65,0,3,.59,3.76,1.51.77.91,1.17,2.06,1.17,3.25,0,1.37-.48,2.5-1.44,3.4-.97.9-2.2,1.36-3.7,1.36h-3.19v-9.52h3.39ZM289.01,58.77c.95,0,1.86-.27,2.65-.81s1.32-1.52,1.32-2.74c0-.98-.31-1.83-.94-2.51-.63-.69-1.53-1.04-2.72-1.04h-2v7.1h1.7Z"/>
    <path class="cls-3" d="M302.41,50.46v1.21h-4.85v2.84h4.52v1.21h-4.52v3.05h5.1v1.21h-6.39v-9.52h6.14Z"/>
    <path class="cls-3" d="M306.37,50.46l3.02,7.21h.06l3-7.21h1.92v9.52h-1.29v-7.83h-.03l-3.21,7.83h-.86l-3.21-7.83h-.03v7.83h-1.29v-9.52h1.92Z"/>
    <path class="cls-3" d="M317.08,50.46l2.59,4.18,2.68-4.18h1.57l-3.6,5.46v4.06h-1.29v-4.06l-3.6-5.46h1.65Z"/>
  </g>
  <g>
    <g>
      <path class="cls-3" d="M81.39,54.57c1.01,4.83.9,10.25.72,13.21-.08,1.39-.18,2.24-.18,2.24,1.04,1.65,4,3.04,4,3.04,5.27.02,6.29-3.48,6.29-3.48-.42-4.33,2.19-7.68,2.19-7.68,2.57-1.4,3.46-3.4,3.46-3.4.12.08.23.16.35.26h0c.2.16.39.34.58.53,1.54,1.61,2.59,4.52.86,8.52-1.84,4.23-1.69,9.71-1.69,9.71-5.69,1.08-14.1-4.61-16.66,1.02-.96,2.1-1.61,5.58-2.05,9.1-.23,1.87-.41,3.76-.54,5.47-.28,3.68-.35,6.52-.35,6.52l2.16,3.21,4.45-6.54-2.24-2.35c.08-1.1.17-2.1.29-3.01.35-2.77.88-4.71,1.47-6.06,1.83-4.18,4.29-2.7,4.29-2.7,13.67,12.6,26.54,3.59,26.54,3.59.19.18-8.59,1.46-7.84.38-1.87.63-2.42.8-4.55.59-6.59-.67-11.71-5.31-11.71-5.31,1.16-.22,3.05-.06,3.05-.06-2.37-.81-5.43-1.41-7.86-.58-1.74.59-2.96,3.77-3.3,4.77-.07.19-.1.3-.1.3,0-.09.01-.17.02-.26.14-1.82.39-3.61.39-3.61-.68,1.4-1.28,2.98-1.75,4.31-.6,1.72-.96,3.03-.96,3.03,0,0,.11-1.15.37-2.72.45-2.71,1.35-6.66,2.91-7.91,2.5-2,8.85,1.18,15.53.62,4.72-.4,5.98-5.97,5.98-5.97-2.02,3.43-4.91,3.3-4.91,3.3.54-7.88,4.03-9.74,4.39-14.95.35-5.01-2.28-7.65-2.28-7.65,1.26,4.51-.11,7.06-.11,7.06-.43-3.44-2.96-5.18-2.96-5.18-.24-3.78-2.81-6.39-2.9-6.48h0c2.25,5.32-1.49,10.21-3.49,11.05-1.99.84-2.51,2.15-2.51,2.15.99-.87,2.61-1.16,2.61-1.16-3.3,2.88-2.39,7.58-2.39,7.58,0,0-.84,1.73-3.09,2.18-2.21.44-4.29-2.27-4.35-2.35h0c.97-3.89-.32-13.7-.9-17.8-.5-3.51,1.19-6.71,1.19-6.71.42,1.57,1.3,2.53,1.35,2.59,0,0,0,0,0,0,0,0,0,0,0,0-1.45-6.65,3.47-8.04,3.47-8.04,2.99,3.55.41,7.42.41,7.42,2.23-1.51,2.09-4.37,2.09-4.37,5.04-2.16,13.39-.52,13.39-.52-3.35-.23-5.66,1.22-5.66,1.22,11.82-.61,19.8,12.59,19.92,12.78-1.29-3.23-3.55-6.54-3.62-6.65,6.65,6.2,6.22,8.79,12.19,15.64,2.5,2.87,9.27,6.85,14.45,8.35.58-.12-4.3-2.7-3.72-2.81-6.66-3.65-11.65-10.14-11.65-10.14,8.37,3.81,13.64,1.45,13.64,1.45-11.43,1-16.69-12.17-16.69-12.17,3.56,1.48,7.38,1,7.38,1-5.77-2.16-7.92-5.46-12-10.14-3.46-3.97-7.5-4.15-7.5-4.15,4.85-3.69,5.54-9.13,5.54-9.13-4.8,6.63-20,8.29-20,8.29,1.51-1.32,1.45-4.81,1.45-4.81,0,0,0,0,0,0,0,.02-.06.16-.21.39-.51.78-2.15,2.55-6.92,3.89-7.76,2.17-7.8,7.15-7.8,7.15-4.01.45-5.25,3.23-5.25,3.23,1.74.76,3.59,1.08,3.59,1.08,0,0-1.71,1.61-.24,8.61Z"/>
      <path class="cls-3" d="M93.95,87.9c-3.85.54-6.99,1.48-9.81,2.58-.38.15-.75.3-1.11.46-1.61.69-3.05,1.43-4.31,2.17-.38.22-.75.45-1.1.67-4.13,2.63-6.05,5.08-6.05,5.08l1.71,1.71-5.88,5.72c-1.71-2.93-.82-8-.82-8,2.98-4.08,7.4-7.44,11.54-9.98.38-.23.76-.46,1.13-.68.61-.36,1.22-.7,1.8-1.01-.26,1.56-.37,2.72-.37,2.72,0,0,.36-1.31.96-3.03.47-.25.92-.48,1.36-.7,0,.09-.01.17-.02.26,0,0,.03-.11.1-.3.49-.24.95-.47,1.4-.68.56-.27,1.09-.51,1.57-.73.9-.4,1.54-.67,2.09-.9,1.7,2.11,3.56,3.57,5.8,4.64Z"/>
      <path class="cls-3" d="M85.3,60.19v-5.87s3.6-3.55,3.6-3.55l-.32.53c-.14.23-.22.48-.26.75-.09.69-.23,1.89-.6,2.59-.3.57-1.71,1.5-1.71,1.5l-.71,4.06Z"/>
      <path class="cls-3" d="M85.39,68s-.05-.94.85-1.52c0,0,.58.1,1.14.64l.07.76s-.4-.5-.99-.6c0,0-.71.19-1.08.71Z"/>
    </g>
    <g>
      <path class="cls-1" d="M90.72,62.68c.99-.87,2.61-1.16,2.61-1.16-3.3,2.88-2.39,7.58-2.39,7.58,0,0-.84,1.73-3.09,2.18-2.21.44-4.29-2.27-4.35-2.35.06.05,2.87,2.31,5.56.38,0,0,.18-4.04,2.1-5.89,0,0-.8.1-1.8.64,0,0,.47-2.65,3.49-4.75,3.28-2.28,4.36-7.65,3.87-9.84,2.25,5.32-1.49,10.21-3.48,11.05-1.99.84-2.51,2.15-2.51,2.15Z"/>
      <path class="cls-1" d="M115.32,85.78c-11.62-.56-16.54-3.35-16.54-3.35,8.61-1.36,7.6-11.15,7.6-11.15-1.74,2.11-4.23,3.09-4.23,3.09.2-2.88,2.45-7.77,2.52-7.93-.5,2.01-.15,4.05-.15,4.05.5-2.65,2.29-5.92,1.84-10.96-.53-5.88-5.41-8.09-5.41-8.09.97,2.11.93,3.94.93,3.94-1.49-3.24-5.05-5.8-5.16-5.88.09.09,2.66,2.71,2.9,6.48,0,0,2.53,1.74,2.96,5.18,0,0,1.38-2.55.11-7.06,0,0,2.63,2.63,2.28,7.65-.36,5.21-3.85,7.07-4.39,14.95,0,0,2.88.13,4.91-3.3,0,0-1.27,5.57-5.98,5.97-6.68.56-13.03-2.62-15.53-.62-1.56,1.25-2.46,5.19-2.91,7.91-.26,1.56-.37,2.72-.37,2.72,0,0,.36-1.31.96-3.03.46-1.33,1.07-2.91,1.75-4.31,0,0-.25,1.79-.39,3.61,0,.09-.01.17-.02.26,0,0,.03-.11.1-.3.34-1,1.56-4.17,3.3-4.77,2.43-.83,5.49-.24,7.86.58,0,0-1.88-.16-3.05.06,0,0,5.03,5.13,11.62,5.8,2.13.22,11.76-.55,12.49-1.46Z"/>
      <path class="cls-1" d="M88.91,44.2c-.38-1.58-.94-2.02-.94-2.02-2.09,1.44-2.1,4.64-2.1,4.64,0,0-.58-4.2,2.27-5.66,0,0,1.07.93.77,3.04Z"/>
    </g>
  </g>
</svg>